# xmcd
#
# Track frame offsets: 
#        150
#        13741
#        30785
#        46527
#        61394
#        83514
#        103907
#        119407
#        135452
#        155319
#
# Disc length: 2333 seconds
#
# Revision: 0
# Processed by: cddbd v1.5.2PL0 Copyright (c) Steve Scherf et al.
# Submitted via: ExactAudioCopyFreeDBPlugin 1.0
#
DISCID=6c091b0a
DTITLE=James Ellis and The Jealous Guys - It ain't Texas ( but it ain't 
DTITLE=bad
DYEAR=1900
DGENRE=Country
TTITLE0=Have you ever seen her
TTITLE1=No second chance
TTITLE2=Don't know where I'm going
TTITLE3=West Texas girl
TTITLE4=Xmas lights
TTITLE5=The bush companions
TTITLE6=Valentine's day
TTITLE7=Don't go down to the water, Daddy
TTITLE8=The light of the moon
TTITLE9=Packing up my bags
EXTD=
EXTT0=
EXTT1=
EXTT2=
EXTT3=
EXTT4=
EXTT5=
EXTT6=
EXTT7=
EXTT8=
EXTT9=
PLAYORDER=
